# xmcd CD database file
#
# Track frame offsets:
#	150
#	13147
#	27795
#	50187
#	64312
#	76815
#	94475
#	111360
#	128347
#	142082
#	159475
#	179007
#	194430
#
# Disc length: 2726 seconds
#
# Revision: 0
# Processed by: cddbd v1.5.2PL0 Copyright (c) Steve Scherf et al.
# Submitted via: CDex 1.70beta2
#
DISCID=bb0aa40d
DTITLE=Smiling Jack Smith - Second Chance
DYEAR=1997
DGENRE=Blues
TTITLE0=If you cut me I bleed red
TTITLE1=Second chance
TTITLE2=I'm single
TTITLE3=Three black crows
TTITLE4=La Nana La Mari
TTITLE5=We got to witch the world
TTITLE6=Just a little early for the blues
TTITLE7=Mister death
TTITLE8=Ron Negrita
TTITLE9=Looking for Carod
TTITLE10=New shoes blues
TTITLE11=Daddy's making money with the blues
TTITLE12=The raven (Too fat to fly)
EXTD=YEAR: 1997
EXTT0=
EXTT1=
EXTT2=
EXTT3=
EXTT4=
EXTT5=
EXTT6=
EXTT7=
EXTT8=
EXTT9=
EXTT10=
EXTT11=
EXTT12=
PLAYORDER=
